<mxfile host="app.diagrams.net" modified="2022-11-02T14:26:18.455Z" agent="5.0 (Windows NT 10.0; Win64; x64) AppleWebKit/537.36 (KHTML, like Gecko) Chrome/106.0.0.0 Safari/537.36" etag="6hziSqcbsV6LkkGg-4jg" version="20.5.1" type="github">
  <diagram id="eWdC-86dBHNuWJpGipaH" name="Page-1">
    <mxGraphModel dx="868" dy="450" grid="1" gridSize="10" guides="1" tooltips="1" connect="1" arrows="1" fold="1" page="1" pageScale="1" pageWidth="850" pageHeight="1100" math="0" shadow="0">
      <root>
        <mxCell id="0" />
        <mxCell id="1" parent="0" />
        <mxCell id="wJW_Ee0WlHm287KH-RVb-17" style="edgeStyle=orthogonalEdgeStyle;rounded=0;orthogonalLoop=1;jettySize=auto;html=1;entryX=0.5;entryY=0;entryDx=0;entryDy=0;" edge="1" parent="1" source="wJW_Ee0WlHm287KH-RVb-1" target="wJW_Ee0WlHm287KH-RVb-9">
          <mxGeometry relative="1" as="geometry" />
        </mxCell>
        <mxCell id="wJW_Ee0WlHm287KH-RVb-18" style="edgeStyle=orthogonalEdgeStyle;rounded=0;orthogonalLoop=1;jettySize=auto;html=1;entryX=0.5;entryY=0;entryDx=0;entryDy=0;" edge="1" parent="1" source="wJW_Ee0WlHm287KH-RVb-1" target="wJW_Ee0WlHm287KH-RVb-5">
          <mxGeometry relative="1" as="geometry" />
        </mxCell>
        <mxCell id="wJW_Ee0WlHm287KH-RVb-1" value="Universitas" style="swimlane;fontStyle=0;childLayout=stackLayout;horizontal=1;startSize=26;fillColor=none;horizontalStack=0;resizeParent=1;resizeParentMax=0;resizeLast=0;collapsible=1;marginBottom=0;" vertex="1" parent="1">
          <mxGeometry x="400" y="240" width="140" height="78" as="geometry" />
        </mxCell>
        <mxCell id="wJW_Ee0WlHm287KH-RVb-2" value="+ fakultas: String&#xa;" style="text;strokeColor=none;fillColor=none;align=left;verticalAlign=top;spacingLeft=4;spacingRight=4;overflow=hidden;rotatable=0;points=[[0,0.5],[1,0.5]];portConstraint=eastwest;" vertex="1" parent="wJW_Ee0WlHm287KH-RVb-1">
          <mxGeometry y="26" width="140" height="26" as="geometry" />
        </mxCell>
        <mxCell id="wJW_Ee0WlHm287KH-RVb-3" value="+ Program Studi: String" style="text;strokeColor=none;fillColor=none;align=left;verticalAlign=top;spacingLeft=4;spacingRight=4;overflow=hidden;rotatable=0;points=[[0,0.5],[1,0.5]];portConstraint=eastwest;" vertex="1" parent="wJW_Ee0WlHm287KH-RVb-1">
          <mxGeometry y="52" width="140" height="26" as="geometry" />
        </mxCell>
        <mxCell id="wJW_Ee0WlHm287KH-RVb-23" style="edgeStyle=orthogonalEdgeStyle;rounded=0;orthogonalLoop=1;jettySize=auto;html=1;entryX=1;entryY=0.5;entryDx=0;entryDy=0;" edge="1" parent="1" source="wJW_Ee0WlHm287KH-RVb-5" target="wJW_Ee0WlHm287KH-RVb-15">
          <mxGeometry relative="1" as="geometry" />
        </mxCell>
        <mxCell id="wJW_Ee0WlHm287KH-RVb-5" value="Program Studi" style="swimlane;fontStyle=0;childLayout=stackLayout;horizontal=1;startSize=26;fillColor=none;horizontalStack=0;resizeParent=1;resizeParentMax=0;resizeLast=0;collapsible=1;marginBottom=0;" vertex="1" parent="1">
          <mxGeometry x="540" y="380" width="140" height="104" as="geometry" />
        </mxCell>
        <mxCell id="wJW_Ee0WlHm287KH-RVb-6" value="+ Dosen A: String" style="text;strokeColor=none;fillColor=none;align=left;verticalAlign=top;spacingLeft=4;spacingRight=4;overflow=hidden;rotatable=0;points=[[0,0.5],[1,0.5]];portConstraint=eastwest;" vertex="1" parent="wJW_Ee0WlHm287KH-RVb-5">
          <mxGeometry y="26" width="140" height="26" as="geometry" />
        </mxCell>
        <mxCell id="wJW_Ee0WlHm287KH-RVb-8" value="+ Dosen B: String" style="text;strokeColor=none;fillColor=none;align=left;verticalAlign=top;spacingLeft=4;spacingRight=4;overflow=hidden;rotatable=0;points=[[0,0.5],[1,0.5]];portConstraint=eastwest;" vertex="1" parent="wJW_Ee0WlHm287KH-RVb-5">
          <mxGeometry y="52" width="140" height="26" as="geometry" />
        </mxCell>
        <mxCell id="wJW_Ee0WlHm287KH-RVb-7" value="+ Dosen C: String" style="text;strokeColor=none;fillColor=none;align=left;verticalAlign=top;spacingLeft=4;spacingRight=4;overflow=hidden;rotatable=0;points=[[0,0.5],[1,0.5]];portConstraint=eastwest;" vertex="1" parent="wJW_Ee0WlHm287KH-RVb-5">
          <mxGeometry y="78" width="140" height="26" as="geometry" />
        </mxCell>
        <mxCell id="wJW_Ee0WlHm287KH-RVb-22" style="edgeStyle=orthogonalEdgeStyle;rounded=0;orthogonalLoop=1;jettySize=auto;html=1;entryX=0;entryY=0.5;entryDx=0;entryDy=0;" edge="1" parent="1" source="wJW_Ee0WlHm287KH-RVb-9" target="wJW_Ee0WlHm287KH-RVb-15">
          <mxGeometry relative="1" as="geometry" />
        </mxCell>
        <mxCell id="wJW_Ee0WlHm287KH-RVb-9" value="Fakultas" style="swimlane;fontStyle=0;childLayout=stackLayout;horizontal=1;startSize=26;fillColor=none;horizontalStack=0;resizeParent=1;resizeParentMax=0;resizeLast=0;collapsible=1;marginBottom=0;" vertex="1" parent="1">
          <mxGeometry x="260" y="380" width="140" height="104" as="geometry">
            <mxRectangle x="260" y="380" width="90" height="30" as="alternateBounds" />
          </mxGeometry>
        </mxCell>
        <mxCell id="wJW_Ee0WlHm287KH-RVb-10" value="+ Ilmu Komputer: String&#xa;" style="text;strokeColor=none;fillColor=none;align=left;verticalAlign=top;spacingLeft=4;spacingRight=4;overflow=hidden;rotatable=0;points=[[0,0.5],[1,0.5]];portConstraint=eastwest;" vertex="1" parent="wJW_Ee0WlHm287KH-RVb-9">
          <mxGeometry y="26" width="140" height="26" as="geometry" />
        </mxCell>
        <mxCell id="wJW_Ee0WlHm287KH-RVb-11" value="+ Elektro: String" style="text;strokeColor=none;fillColor=none;align=left;verticalAlign=top;spacingLeft=4;spacingRight=4;overflow=hidden;rotatable=0;points=[[0,0.5],[1,0.5]];portConstraint=eastwest;" vertex="1" parent="wJW_Ee0WlHm287KH-RVb-9">
          <mxGeometry y="52" width="140" height="26" as="geometry" />
        </mxCell>
        <mxCell id="wJW_Ee0WlHm287KH-RVb-12" value="+ Business: String" style="text;strokeColor=none;fillColor=none;align=left;verticalAlign=top;spacingLeft=4;spacingRight=4;overflow=hidden;rotatable=0;points=[[0,0.5],[1,0.5]];portConstraint=eastwest;" vertex="1" parent="wJW_Ee0WlHm287KH-RVb-9">
          <mxGeometry y="78" width="140" height="26" as="geometry" />
        </mxCell>
        <mxCell id="wJW_Ee0WlHm287KH-RVb-13" value="Dosen" style="swimlane;fontStyle=0;childLayout=stackLayout;horizontal=1;startSize=26;fillColor=none;horizontalStack=0;resizeParent=1;resizeParentMax=0;resizeLast=0;collapsible=1;marginBottom=0;" vertex="1" parent="1">
          <mxGeometry x="400" y="520" width="140" height="104" as="geometry" />
        </mxCell>
        <mxCell id="wJW_Ee0WlHm287KH-RVb-14" value="+ ID: int" style="text;strokeColor=none;fillColor=none;align=left;verticalAlign=top;spacingLeft=4;spacingRight=4;overflow=hidden;rotatable=0;points=[[0,0.5],[1,0.5]];portConstraint=eastwest;" vertex="1" parent="wJW_Ee0WlHm287KH-RVb-13">
          <mxGeometry y="26" width="140" height="26" as="geometry" />
        </mxCell>
        <mxCell id="wJW_Ee0WlHm287KH-RVb-15" value="+ Nama: String" style="text;strokeColor=none;fillColor=none;align=left;verticalAlign=top;spacingLeft=4;spacingRight=4;overflow=hidden;rotatable=0;points=[[0,0.5],[1,0.5]];portConstraint=eastwest;" vertex="1" parent="wJW_Ee0WlHm287KH-RVb-13">
          <mxGeometry y="52" width="140" height="26" as="geometry" />
        </mxCell>
        <mxCell id="wJW_Ee0WlHm287KH-RVb-16" value="+ Jurusan: String" style="text;strokeColor=none;fillColor=none;align=left;verticalAlign=top;spacingLeft=4;spacingRight=4;overflow=hidden;rotatable=0;points=[[0,0.5],[1,0.5]];portConstraint=eastwest;" vertex="1" parent="wJW_Ee0WlHm287KH-RVb-13">
          <mxGeometry y="78" width="140" height="26" as="geometry" />
        </mxCell>
        <mxCell id="wJW_Ee0WlHm287KH-RVb-21" value="mengajar();" style="html=1;" vertex="1" parent="1">
          <mxGeometry x="400" y="624" width="140" height="36" as="geometry" />
        </mxCell>
        <mxCell id="wJW_Ee0WlHm287KH-RVb-24" value="n" style="text;html=1;strokeColor=none;fillColor=none;align=center;verticalAlign=middle;whiteSpace=wrap;rounded=0;" vertex="1" parent="1">
          <mxGeometry x="470" y="318" width="60" height="30" as="geometry" />
        </mxCell>
        <mxCell id="wJW_Ee0WlHm287KH-RVb-25" value="1" style="text;html=1;strokeColor=none;fillColor=none;align=center;verticalAlign=middle;whiteSpace=wrap;rounded=0;" vertex="1" parent="1">
          <mxGeometry x="600" y="350" width="60" height="30" as="geometry" />
        </mxCell>
        <mxCell id="wJW_Ee0WlHm287KH-RVb-26" value="1" style="text;html=1;strokeColor=none;fillColor=none;align=center;verticalAlign=middle;whiteSpace=wrap;rounded=0;" vertex="1" parent="1">
          <mxGeometry x="290" y="350" width="60" height="30" as="geometry" />
        </mxCell>
        <mxCell id="wJW_Ee0WlHm287KH-RVb-28" value="n" style="text;html=1;strokeColor=none;fillColor=none;align=center;verticalAlign=middle;whiteSpace=wrap;rounded=0;" vertex="1" parent="1">
          <mxGeometry x="590" y="484" width="60" height="30" as="geometry" />
        </mxCell>
        <mxCell id="wJW_Ee0WlHm287KH-RVb-31" value="1" style="text;html=1;strokeColor=none;fillColor=none;align=center;verticalAlign=middle;whiteSpace=wrap;rounded=0;" vertex="1" parent="1">
          <mxGeometry x="520" y="594" width="60" height="30" as="geometry" />
        </mxCell>
        <mxCell id="wJW_Ee0WlHm287KH-RVb-32" value="n" style="text;html=1;strokeColor=none;fillColor=none;align=center;verticalAlign=middle;whiteSpace=wrap;rounded=0;" vertex="1" parent="1">
          <mxGeometry x="310" y="484" width="60" height="30" as="geometry" />
        </mxCell>
        <mxCell id="wJW_Ee0WlHm287KH-RVb-33" value="1" style="text;html=1;strokeColor=none;fillColor=none;align=center;verticalAlign=middle;whiteSpace=wrap;rounded=0;" vertex="1" parent="1">
          <mxGeometry x="350" y="580" width="60" height="30" as="geometry" />
        </mxCell>
      </root>
    </mxGraphModel>
  </diagram>
</mxfile>
